<?xml version="1.0" encoding="UTF-8" standalone="no"?>
<svg width="19px" height="28px" viewBox="0 0 19 28" version="1.1" xmlns="http://www.w3.org/2000/svg" xmlns:xlink="http://www.w3.org/1999/xlink">
    <!-- Generator: Sketch 3.7.2 (28276) - http://www.bohemiancoding.com/sketch -->
    <title>icon</title>
    <desc>Created with Sketch.</desc>
    <defs>
        <polygon id="path-1" points="1.75397199e-19 0.295414099 1.75397199e-19 27.9983266 18.9455127 27.9983266 18.9455127 0.295414099 0 0.295414099"></polygon>
    </defs>
    <g id="Fase-2" stroke="none" stroke-width="1" fill="none" fill-rule="evenodd">
        <g id="OMW-to-Rum-menu" transform="translate(-408.000000, -317.000000)">
            <g id="icon" transform="translate(408.000000, 317.000000)">
                <mask id="mask-2" fill="white">
                    <use xlink:href="#path-1"></use>
                </mask>
                <g id="Clip-2"></g>
                <path d="M18.9455127,7.13938721 L18.7627065,7.55773737 C18.4213605,9.47378114 17.2776087,10.7539327 16.4234348,11.3028081 C14.5791957,12.4808822 12.6637754,11.7747071 12.5877409,11.7479327 C11.3501594,11.4734949 10.2371449,11.6307946 9.32796739,12.2114646 C7.63417935,13.2975017 7.14723551,15.5130842 7.14723551,15.5398586 L7.03399275,16.088734 L13.7379638,27.3055387 L12.6508333,27.9983266 L0.708576087,8.02796296 C0.480472826,8.12 0.215161232,8.04135017 0.0760344203,7.81878788 C-0.0760344203,7.56443098 -1.57305592e-13,7.23142424 0.245898551,7.07412458 L1.14375181,6.49847475 C1.38965036,6.34284848 1.71320109,6.41982492 1.86365217,6.67585522 C1.98983696,6.89172391 1.95262862,7.14608081 1.79408877,7.32346128 L2.11763949,7.8656431 C2.82459783,6.08681818 3.71598007,4.85184848 4.77722645,4.17914141 C6.69911775,2.94919192 8.45599819,3.96996633 8.52556159,4.01514815 C10.0284547,4.92380471 11.0961721,4.6292862 11.7287138,4.22432323 C12.0004964,4.04694276 12.1396232,3.8846229 12.1396232,3.8846229 C13.624721,2.53753535 14.2184366,1.01474074 14.4837482,0.452478114 C14.7425888,-0.0963973064 15.2101196,0.969558923 15.2101196,0.969558923 L18.9455127,7.13938721 Z" id="Fill-1" fill="#FAF0F1" mask="url(#mask-2)"></path>
                <path d="M6.64807217,15.1516969 C6.64807217,15.1516969 6.87311662,12.8616359 8.700039,11.8228354 C10.5269614,10.7840349 12.6760805,11.2646913 12.6760805,11.2646913 C12.6760805,11.2646913 14.2760604,11.7162171 15.3595381,11.0015441 C16.4430159,10.286871 17.6834187,8.85927284 17.6834185,7.39302796 C17.6834184,5.92678308 14.3679,1.83896994 14.3679,1.83896994 C14.3679,1.83896994 14.0438052,2.34370779 13.3599429,3.63322646 C12.6760807,4.92274512 11.3726812,5.71102171 9.87896168,5.71102172 C8.38524218,5.71102173 8.00706852,4.74019264 6.64807217,4.74019274 C5.28907582,4.74019283 2.65969686,7.20309647 2.99612529,8.75226636 C3.33255373,10.3014362 6.64807217,15.1516969 6.64807217,15.1516969 Z" id="Path-577" fill="#A4283D" mask="url(#mask-2)"></path>
            </g>
        </g>
    </g>
</svg>