<?xml version="1.0" encoding="UTF-8" standalone="no"?>
<svg width="20px" height="21px" viewBox="0 0 20 21" version="1.1" xmlns="http://www.w3.org/2000/svg" xmlns:xlink="http://www.w3.org/1999/xlink">
    <!-- Generator: Sketch 3.7.2 (28276) - http://www.bohemiancoding.com/sketch -->
    <title>map</title>
    <desc>Created with Sketch.</desc>
    <defs>
        <polygon id="path-1" points="0.00375 0.0385929204 0.00375 20.9979558 19.9555625 20.9979558 19.9555625 0.0385929204 0.00375 0.0385929204"></polygon>
    </defs>
    <g id="Fase-2" stroke="none" stroke-width="1" fill="none" fill-rule="evenodd">
        <g id="OMW-to-Rum-menu" transform="translate(-409.000000, -242.000000)">
            <g id="map" transform="translate(409.000000, 242.000000)">
                <g id="Group-5">
                    <mask id="mask-2" fill="white">
                        <use xlink:href="#path-1"></use>
                    </mask>
                    <g id="Clip-3"></g>
                    <path d="M19.3556875,4.23041593 L8.0495625,4.23041593 C8.172625,3.89237168 8.233625,3.58988496 8.233625,3.32153097 C8.233625,1.51125664 6.7478125,0.0385929204 4.921625,0.0385929204 C3.0951875,0.0385929204 1.609625,1.51125664 1.609625,3.32153097 C1.609625,3.58988496 1.670625,3.89237168 1.7936875,4.23041593 L0.6005625,4.23041593 C0.2690625,4.23041593 0.0005,4.49684956 0.0005,4.82523009 L0.0005,20.3707434 C0.0005,20.3707434 -0.0390625,20.9676637 0.5825,20.9979558 L19.3556875,20.9979558 C19.687,20.9979558 19.9555625,20.7317699 19.9555625,20.4033894 L19.9555625,4.82523009 C19.9555625,4.49684956 19.687,4.23041593 19.3556875,4.23041593 L19.3556875,4.23041593 Z M4.921625,1.2279115 C6.0861875,1.2279115 7.0336875,2.16702655 7.0336875,3.32153097 C7.0336875,4.06947788 5.911375,5.67650442 4.921625,6.83968142 C3.931625,5.67650442 2.8095625,4.06947788 2.8095625,3.32153097 C2.8095625,2.16702655 3.7568125,1.2279115 4.921625,1.2279115 L4.921625,1.2279115 Z M1.2004375,5.41973451 L2.3891875,5.41973451 C2.583,5.73671681 4.4504375,8.11225664 4.479,8.14323009 C4.59275,8.26613274 4.7531875,8.33631858 4.921625,8.33631858 C5.089875,8.33631858 5.2505,8.26613274 5.364,8.14323009 C5.3928125,8.11225664 7.26,5.73671681 7.453875,5.41973451 L10.26025,5.41973451 L1.2004375,14.3993717 L1.2004375,5.41973451 Z M2.0490625,19.8086372 L7.6338125,14.2735575 L13.21825,19.8086372 L2.0490625,19.8086372 Z M14.9153125,19.8086372 L8.058125,13.011885 C7.8235,12.7795841 7.443875,12.7795841 7.2095,13.011885 L1.2004375,18.967708 L1.2004375,16.0814159 L11.95725,5.41973451 L14.869375,5.41973451 C14.869375,5.41973451 9.5139375,10.7287699 9.5141875,10.7287699 C9.4275,10.8086195 9.1543125,11.1815398 9.526125,11.5805398 L9.525875,11.5807876 L17.827125,19.8086372 L14.9153125,19.8086372 Z M13.3755,8.58243363 L15.964125,11.1483982 L13.3755,13.714115 L10.786875,11.1483982 L13.3755,8.58243363 Z M18.755625,19.0466283 L14.223875,14.5552301 L17.2370625,11.5689558 C17.4714375,11.3366549 17.4714375,10.9601416 17.2370625,10.7278407 L14.223875,7.74156637 L16.566375,5.41973451 L18.755625,5.41973451 L18.755625,19.0466283 Z" id="Fill-4" fill="#FAF0F1" mask="url(#mask-2)"></path>
                </g>
            </g>
        </g>
    </g>
</svg>