<?xml version="1.0" encoding="UTF-8" standalone="no"?>
<svg width="23px" height="32px" viewBox="0 0 23 32" version="1.1" xmlns="http://www.w3.org/2000/svg" xmlns:xlink="http://www.w3.org/1999/xlink">
    <!-- Generator: Sketch 3.7.2 (28276) - http://www.bohemiancoding.com/sketch -->
    <title>money-bag</title>
    <desc>Created with Sketch.</desc>
    <defs>
        <polygon id="path-1" points="0.00506620125 0.137634409 0.00506620125 31.999828 22.6290323 31.999828 22.6290323 0.137634409 0.00506620125 0.137634409"></polygon>
    </defs>
    <g id="Fase-2" stroke="none" stroke-width="1" fill="none" fill-rule="evenodd">
        <g id="OMW-to-Rum-menu" transform="translate(-408.000000, -84.000000)">
            <g id="money-bag" transform="translate(408.000000, 84.000000)">
                <mask id="mask-2" fill="white">
                    <use xlink:href="#path-1"></use>
                </mask>
                <g id="Clip-2"></g>
                <path d="M14.4324892,19.2486953 C14.4324892,19.4814332 14.6178979,19.6703219 14.8463479,19.6703219 C15.074867,19.6703219 15.2602067,19.4814332 15.2602067,19.2486953 C15.2602067,18.0601299 14.1681714,17.0768966 12.6116485,16.7213951 L12.6116485,16.1004797 C12.6116485,15.8677418 12.4262398,15.678853 12.1977898,15.678853 C11.9692707,15.678853 11.783931,15.8677418 11.783931,16.1004797 L11.783931,16.5968045 C11.6300445,16.5849989 11.4738128,16.5783934 11.3148221,16.5783934 C11.1558313,16.5783934 10.9995996,16.5849989 10.8457132,16.5968045 L10.8457132,16.1004797 C10.8457132,15.8677418 10.6603734,15.678853 10.4318544,15.678853 C10.2034043,15.678853 10.0179956,15.8677418 10.0179956,16.1004797 L10.0179956,16.7213951 C8.46147277,17.0768966 7.36943742,18.0601299 7.36943742,19.2486953 C7.36943742,20.4369796 8.46147277,21.420494 10.0179956,21.7759955 L10.0179956,25.4007195 C8.95424061,25.106143 8.19715497,24.4671679 8.19715497,23.7460458 C8.19715497,23.5132377 8.01174624,23.3244192 7.7832962,23.3244192 C7.55477718,23.3244192 7.36943742,23.5132377 7.36943742,23.7460458 C7.36943742,24.9343302 8.46147277,25.9178445 10.0179956,26.273346 L10.0179956,26.8942615 C10.0179956,27.1269994 10.2034043,27.3158881 10.4318544,27.3158881 C10.6603734,27.3158881 10.8457132,27.1269994 10.8457132,26.8942615 L10.8457132,26.3976556 C10.9995996,26.4094612 11.1558313,26.4163477 11.3148221,26.4163477 C11.4738128,26.4163477 11.6300445,26.4094612 11.783931,26.3976556 L11.783931,26.8942615 C11.783931,27.1269994 11.9692707,27.3158881 12.1977898,27.3158881 C12.4262398,27.3158881 12.6116485,27.1269994 12.6116485,26.8942615 L12.6116485,26.273346 C14.1681714,25.9175634 15.2602067,24.9343302 15.2602067,23.7460458 C15.2602067,22.5574804 14.1681714,21.5742472 12.6116485,21.2187457 L12.6116485,17.5940217 C13.6754035,17.8882468 14.4324892,18.5275733 14.4324892,19.2486953 L14.4324892,19.2486953 Z M8.19715497,19.2486953 C8.19715497,18.5275733 8.95424061,17.8882468 10.0179956,17.5940217 L10.0179956,20.903369 C8.95424061,20.6087925 8.19715497,19.9698174 8.19715497,19.2486953 L8.19715497,19.2486953 Z M11.3148221,25.5730945 C11.1558313,25.5730945 10.9993237,25.5656458 10.8457132,25.5513807 L10.8457132,21.9003051 C10.9995996,21.9121106 11.1558313,21.9189972 11.3148221,21.9189972 C11.4738128,21.9189972 11.6303204,21.9263757 11.783931,21.9406407 L11.783931,25.5513807 C11.6303204,25.5656458 11.4738128,25.5730945 11.3148221,25.5730945 L11.3148221,25.5730945 Z M14.4324892,23.7460458 C14.4324892,24.4671679 13.6754035,25.106143 12.6116485,25.4007195 L12.6116485,22.0913722 C13.6754035,22.3855973 14.4324892,23.0249238 14.4324892,23.7460458 L14.4324892,23.7460458 Z M11.783931,21.094155 C11.6300445,21.0823494 11.4738128,21.075744 11.3148221,21.075744 C11.1558313,21.075744 10.9993237,21.0682952 10.8457132,21.0540302 L10.8457132,17.4432902 C10.9993237,17.4290251 11.1558313,17.4216467 11.3148221,17.4216467 C11.4738128,17.4216467 11.6303204,17.4290251 11.783931,17.4432902 L11.783931,21.094155 Z" id="Fill-1" fill="#FAF0F1" mask="url(#mask-2)"></path>
                <path d="M14.643517,8.35466667 C14.9040886,8.0664086 15.0633362,7.68197849 15.0633362,7.26030108 C15.0633362,6.4928172 14.5359446,5.84903226 13.8311516,5.68430108 C14.5877888,4.98511828 15.0633362,3.976 15.0633362,2.85608602 L15.0633362,1.20412903 C15.0633362,0.616172043 14.5936993,0.137634409 14.0164901,0.137634409 L8.61254213,0.137634409 C8.03533293,0.137634409 7.56569608,0.616172043 7.56569608,1.20412903 L7.56569608,2.85608602 C7.56569608,3.976 8.0412435,4.98511828 8.79788066,5.68430108 C8.09308763,5.84903226 7.56569608,6.4928172 7.56569608,7.26030108 C7.56569608,7.68197849 7.72494367,8.0664086 7.98551529,8.35466667 C3.36623742,9.80627957 0,14.196129 0,19.3722151 L0,27.0794839 C0,29.7925161 2.1666454,31.999828 4.82969409,31.999828 L17.7993382,31.999828 C20.4623869,31.999828 22.6290323,29.7925161 22.6290323,27.0794839 L22.6290323,19.3722151 C22.6290323,14.196129 19.2627948,9.80627957 14.643517,8.35466667 L14.643517,8.35466667 Z M8.57893633,2.85608602 L8.57893633,1.20412903 C8.57893633,1.18537634 8.59371275,1.16989247 8.61254213,1.16989247 L14.0164901,1.16989247 C14.0353195,1.16989247 14.0500959,1.18537634 14.0500959,1.20412903 L14.0500959,2.85608602 C14.0500959,4.21625806 13.0883621,5.35131183 11.8211363,5.59432258 L11.8211363,3.9568172 C11.8211363,3.67191398 11.5941704,3.44068817 11.3145161,3.44068817 C11.0348618,3.44068817 10.807896,3.67191398 10.807896,3.9568172 L10.807896,5.59432258 C9.5406702,5.35131183 8.57893633,4.21625806 8.57893633,2.85608602 L8.57893633,2.85608602 Z M9.15276805,7.84533333 C8.83646822,7.84533333 8.57893633,7.58288172 8.57893633,7.26030108 C8.57893633,6.93772043 8.83646822,6.67526882 9.15276805,6.67526882 L13.4762642,6.67526882 C13.792564,6.67526882 14.0500959,6.93772043 14.0500959,7.26030108 C14.0500959,7.58288172 13.792564,7.84533333 13.4762642,7.84533333 L9.15276805,7.84533333 Z M21.615792,27.0794839 C21.615792,29.2236559 19.9036693,30.9675699 17.7993382,30.9675699 L4.82969409,30.9675699 C2.72536296,30.9675699 1.01324025,29.2236559 1.01324025,27.0794839 L1.01324025,19.3722151 C1.01324025,13.7582796 5.3620674,9.16017204 10.807896,8.89032258 L10.807896,10.5633548 C10.807896,10.8483441 11.0348618,11.0794839 11.3145161,11.0794839 C11.5941704,11.0794839 11.8211363,10.8483441 11.8211363,10.5633548 L11.8211363,8.89032258 C17.2669649,9.16017204 21.615792,13.7582796 21.615792,19.3722151 L21.615792,27.0794839 Z" id="Fill-3" fill="#FAF0F1" mask="url(#mask-2)"></path>
            </g>
        </g>
    </g>
</svg>