<?xml version="1.0" encoding="UTF-8" standalone="no"?>
<svg width="25px" height="29px" viewBox="0 0 25 29" version="1.1" xmlns="http://www.w3.org/2000/svg" xmlns:xlink="http://www.w3.org/1999/xlink">
    <!-- Generator: Sketch 3.7.2 (28276) - http://www.bohemiancoding.com/sketch -->
    <title>octopus</title>
    <desc>Created with Sketch.</desc>
    <defs>
        <polygon id="path-1" points="0.00476190476 0.0191050602 0.00476190476 28.9219892 24.9804214 28.9219892 24.9804214 0.0191050602 0.00476190476 0.0191050602"></polygon>
    </defs>
    <g id="Fase-2" stroke="none" stroke-width="1" fill="none" fill-rule="evenodd">
        <g id="OMW-to-Rum-menu" transform="translate(-407.000000, -166.000000)">
            <g id="octopus" transform="translate(407.000000, 166.000000)">
                <g id="Group-4">
                    <mask id="mask-2" fill="white">
                        <use xlink:href="#path-1"></use>
                    </mask>
                    <g id="Clip-2"></g>
                    <path d="M11.2735714,17.3736577 C11.0289683,17.4689434 10.9092857,17.7415903 11.0063492,17.9821887 C11.1030159,18.2230997 11.3799206,18.3409757 11.6242063,18.24569 C12.1825397,18.0279946 12.797619,18.0279946 13.3559524,18.24569 C13.4136508,18.2680458 13.4728571,18.2786765 13.5311111,18.2786765 C13.720873,18.2786765 13.9000794,18.1663504 13.974127,17.9821887 C14.070873,17.7415903 13.9511905,17.4689434 13.7065873,17.3736577 C12.9222222,17.0677116 12.058254,17.0677116 11.2735714,17.3736577 L11.2735714,17.3736577 Z" id="Fill-1" fill="#FAF0F1" mask="url(#mask-2)"></path>
                    <path d="M22.390873,10.328221 L24.9255556,5.58480593 C24.9965873,5.452 24.9987302,5.29378976 24.9315079,5.15942049 C24.8642063,5.02481671 24.735873,4.92984367 24.5857937,4.90420485 L23.4372222,4.70753639 C21.6242063,4.3970566 20.0313492,3.41777898 18.9515079,1.95003504 C18.4188889,1.22636388 17.7780952,0.605013477 17.0470635,0.103336927 C16.8780952,-0.0127412399 16.652381,-0.00844204852 16.4877778,0.113733154 C15.3286508,0.975994609 13.9465873,1.43186523 12.4900794,1.43186523 C11.0338889,1.43186523 9.65150794,0.975994609 8.49269841,0.113733154 C8.32809524,-0.00844204852 8.10238095,-0.0127412399 7.9334127,0.103336927 C7.20206349,0.605013477 6.5615873,1.22636388 6.02896825,1.95003504 C4.94912698,3.41746631 3.35595238,4.3970566 1.54293651,4.70753639 L0.39468254,4.90420485 C0.244603175,4.92984367 0.115952381,5.02481671 0.048968254,5.15918598 C-0.0182539683,5.29378976 -0.0161111111,5.452 0.0548412698,5.58480593 L2.58960317,10.328221 C3.06484127,11.217372 3.92793651,11.7731402 4.87134921,11.8879677 L4.87134921,14.7803854 C4.87134921,15.0356792 4.66055556,15.2432911 4.40134921,15.2432911 C4.14214286,15.2432911 3.93166667,15.0356792 3.93166667,14.7803854 L3.93166667,13.6174151 C3.93166667,12.9275903 3.3618254,12.3667412 2.6618254,12.3667412 C1.96150794,12.3667412 1.39198413,12.9275903 1.39198413,13.6174151 L1.39198413,14.7803854 C1.39198413,16.414938 2.74214286,17.7446388 4.40134921,17.7446388 C5.1965873,17.7446388 5.91984127,17.4386927 6.45865079,16.9410027 L6.45865079,20.436558 C6.45865079,20.5642049 6.4065873,20.6829407 6.31230159,20.771504 C6.21809524,20.8597547 6.09404762,20.905248 5.96412698,20.8988383 C5.71865079,20.8869569 5.51865079,20.6676981 5.51865079,20.4096685 L5.51865079,19.8951725 C5.51865079,19.5568652 5.38380952,19.2402102 5.13857143,19.002973 C4.89333333,18.7660485 4.56968254,18.6387143 4.22555556,18.645124 C3.53825397,18.6566927 2.97896825,19.2295013 2.97896825,19.9214367 L2.97896825,20.436558 C2.97896825,21.2405067 3.30142857,21.9934906 3.88706349,22.5565283 C4.45468254,23.1027601 5.19809524,23.4008113 5.98769841,23.4008113 C6.01222222,23.4008113 6.03642857,23.4004987 6.06087302,23.3998733 C6.82539683,23.3818949 7.52261905,23.0713369 8.04595238,22.5778679 L8.04595238,23.8838059 C8.04595238,24.1415229 7.84595238,24.3610943 7.60015873,24.3729757 C7.41595238,24.3812615 7.24238095,24.2832399 7.15777778,24.1213558 C6.93825397,23.7021456 6.50547619,23.4420054 6.02833333,23.4420054 C5.58222222,23.4420054 5.17611111,23.6657978 4.94206349,24.0413908 C4.71103175,24.411434 4.6918254,24.8627709 4.8902381,25.2481348 C5.40238095,26.2422642 6.4518254,26.8749488 7.57809524,26.8749488 C7.60166667,26.8749488 7.62492063,26.8746361 7.6481746,26.8740108 C8.41301587,26.856345 9.10992063,26.5457871 9.63325397,26.0523962 L9.63325397,27.6713154 C9.63325397,28.3607493 10.2027778,28.9219892 10.9030952,28.9219892 C11.6030952,28.9219892 12.1729365,28.3607493 12.1729365,27.6713154 L12.1729365,26.0484097 C12.2746032,26.0743612 12.3806349,26.0896038 12.4903968,26.0896038 C12.6001587,26.0896038 12.7061905,26.0743612 12.8078571,26.0484097 L12.8078571,27.6713154 C12.8078571,28.3607493 13.377381,28.9219892 14.0776984,28.9219892 C14.7776984,28.9219892 15.3475397,28.3607493 15.3475397,27.6713154 L15.3475397,26.0523962 C15.8705556,26.5457871 16.5677778,26.856345 17.3323016,26.8740108 C17.355873,26.8746361 17.379127,26.8749488 17.402381,26.8749488 C18.5286508,26.8749488 19.5784127,26.2419515 20.0902381,25.2481348 C20.2886508,24.8627709 20.2694444,24.411434 20.0384127,24.0413908 C19.8043651,23.6657978 19.3985714,23.4416927 18.9521429,23.4416927 C18.475,23.4416927 18.0422222,23.7021456 17.8230159,24.1213558 C17.7384127,24.2832399 17.5650794,24.3812615 17.3803175,24.3729757 C17.1347619,24.3610943 16.9348413,24.1415229 16.9348413,23.8838059 L16.9348413,22.5974097 C17.4965873,23.1168302 18.221746,23.4008113 18.9911905,23.4008113 C19.0153968,23.4008113 19.0398413,23.4004987 19.0643651,23.3998733 C20.6838889,23.3617278 22.0015079,22.0111563 22.0015079,20.3895013 L22.0015079,19.8948598 C22.0015079,19.5565526 21.8666667,19.2395849 21.6214286,19.0026604 C21.3761905,18.7657358 21.0519048,18.6384016 20.7087302,18.6448113 C20.0211111,18.6566927 19.4618254,19.2292668 19.4618254,19.921124 L19.4618254,20.436558 C19.4618254,20.5638922 19.41,20.6829407 19.3154762,20.7711914 C19.2215079,20.8597547 19.0972222,20.9049353 18.967619,20.8985256 C18.7220635,20.8866442 18.5221429,20.6673854 18.5221429,20.4096685 L18.5221429,16.9410027 C19.0606349,17.4386927 19.7842063,17.7443261 20.579127,17.7443261 C22.2386508,17.7443261 23.5888095,16.4146253 23.5888095,14.7803854 L23.5888095,13.6171024 C23.5888095,12.9275903 23.0189683,12.3664286 22.3189683,12.3664286 C21.6186508,12.3664286 21.049127,12.9275903 21.049127,13.6171024 L21.049127,14.7803854 C21.049127,15.0353666 20.838254,15.2429784 20.579127,15.2429784 C20.3202381,15.2429784 20.1094444,15.0353666 20.1094444,14.7803854 L20.1094444,11.8882022 C21.0525397,11.7737655 21.9153175,11.217372 22.390873,10.328221 L22.390873,10.328221 Z M3.1284127,9.32213208 L1.20222222,5.71792453 L1.70634921,5.6314717 C3.76515873,5.27917251 5.57412698,4.16708895 6.80031746,2.50056604 C7.20301587,1.95277089 7.67579365,1.47219946 8.20809524,1.06760647 C9.47174603,1.92072237 10.9446032,2.36987062 12.4900794,2.36987062 C14.0355556,2.36987062 15.5084127,1.92072237 16.7720635,1.06760647 C17.3043651,1.47188679 17.7771429,1.95277089 18.1798413,2.50056604 C19.4063492,4.16677628 21.2152381,5.27885984 23.2738095,5.6314717 L23.7779365,5.71792453 L21.8520635,9.32213208 C18.8529365,8.19269542 15.7056349,7.61988679 12.4900794,7.61988679 C9.27452381,7.61988679 6.12722222,8.19269542 3.1284127,9.32213208 L3.1284127,9.32213208 Z M4.40134921,16.8066334 C3.26698413,16.8066334 2.34404762,15.897628 2.34404762,14.7803854 L2.34404762,13.6174151 C2.34404762,13.4449003 2.48666667,13.3047466 2.66150794,13.3047466 C2.83666667,13.3047466 2.97896825,13.4449003 2.97896825,13.6174151 L2.97896825,14.7803854 C2.97896825,15.5529111 3.61698413,16.1812965 4.40134921,16.1812965 C5.18539683,16.1812965 5.8234127,15.5529111 5.8234127,14.7803854 L5.8234127,11.8534178 C6.0165873,11.8152722 6.20904762,11.7581321 6.39785714,11.6805903 C6.41801587,11.6723827 6.4381746,11.665035 6.45833333,11.6568275 L6.45833333,14.7803854 C6.45833333,15.897628 5.53571429,16.8066334 4.40134921,16.8066334 L4.40134921,16.8066334 Z M14.3948413,19.9302695 L14.3948413,27.6713154 C14.3948413,27.8438302 14.2525397,27.9839838 14.077381,27.9839838 C13.9025397,27.9839838 13.7599206,27.8438302 13.7599206,27.6713154 L13.7599206,19.9925687 C13.7599206,19.7336792 13.5469048,19.523566 13.2837302,19.523566 C13.0207937,19.523566 12.8075397,19.7336792 12.8075397,19.9925687 L12.8075397,24.8389299 C12.8075397,25.0114447 12.6652381,25.1515984 12.4900794,25.1515984 C12.3152381,25.1515984 12.172619,25.0114447 12.172619,24.8389299 L12.172619,19.9925687 C12.172619,19.7336792 11.9596032,19.523566 11.6964286,19.523566 C11.4334921,19.523566 11.2202381,19.7336792 11.2202381,19.9925687 L11.2202381,27.6713154 C11.2202381,27.8438302 11.0779365,27.9839838 10.9027778,27.9839838 C10.7279365,27.9839838 10.5853175,27.8438302 10.5853175,27.6713154 L10.5853175,18.4606496 C10.5853175,17.426186 11.4400794,16.5846388 12.4900794,16.5846388 C13.5403968,16.5846388 14.3948413,17.426186 14.3948413,18.4606496 L14.3948413,19.9302695 Z M18.9207937,21.835593 C19.312381,21.8545094 19.6872222,21.7180296 19.9720635,21.4508544 C20.2530159,21.1876658 20.4138889,20.8179353 20.4138889,20.4368706 L20.4138889,19.9214367 C20.4138889,19.7409488 20.5565079,19.5858652 20.7257937,19.5831294 C20.8113492,19.5821914 20.8928571,19.6130674 20.9539683,19.6722399 C21.0153175,19.7314906 21.0488095,19.8105957 21.0488095,19.8951725 L21.0488095,20.389814 C21.0488095,21.5064313 20.1481746,22.4362291 19.0414286,22.4621806 C18.4830952,22.475 17.9557143,22.2704367 17.5554762,21.8856981 C17.1552381,21.5006469 16.9348413,20.9858383 16.9348413,20.4368706 L16.9348413,18.2728922 C16.9348413,16.8328976 16.2152381,15.4848275 15.0099206,14.6668086 C14.3136508,14.1941321 13.8978571,13.4329407 13.8978571,12.6302426 L13.8978571,12.6137493 C13.8978571,12.3196846 14.1325397,12.0793989 14.426746,12.0632183 L14.426746,12.6344636 C14.426746,12.8937439 14.6397619,13.1034663 14.9029365,13.1034663 C15.165873,13.1034663 15.379127,12.8937439 15.379127,12.6344636 L15.379127,12.0613423 L16.193254,12.0613423 C16.4565079,12.0613423 16.6694444,11.8516199 16.6694444,11.5923396 C16.6694444,11.3334501 16.4565079,11.1233369 16.193254,11.1233369 L14.4584127,11.1233369 C13.624127,11.1233369 12.9454762,11.7920566 12.9454762,12.6137493 L12.9454762,12.6302426 C12.9454762,13.74131 13.5153175,14.791407 14.4695238,15.4393342 C15.4169841,16.0821024 15.9824603,17.141345 15.9824603,18.2728922 L15.9824603,23.8841186 C15.9824603,24.6468733 16.5757937,25.2731482 17.3331746,25.3100431 C17.8909524,25.337558 18.4139683,25.0392722 18.6693651,24.5512749 C18.7246032,24.4456712 18.8330952,24.3800108 18.9521429,24.3800108 C19.1142857,24.3800108 19.198254,24.4865526 19.2268254,24.5323585 C19.2538095,24.5757412 19.3092857,24.6908814 19.2407937,24.824 C18.8833333,25.5183585 18.1401587,25.9549218 17.3546032,25.9366307 C16.2478571,25.9106792 15.3475397,24.9811941 15.3475397,23.8642642 L15.3475397,18.4606496 C15.3475397,16.9089542 14.0656349,15.6466334 12.4903968,15.6466334 C10.9148413,15.6466334 9.63325397,16.9089542 9.63325397,18.4606496 L9.63325397,23.8642642 C9.63325397,24.9811941 8.73261905,25.9106792 7.62587302,25.9366307 C6.8384127,25.9546873 6.09714286,25.5183585 5.73968254,24.824 C5.67119048,24.6908814 5.72666667,24.5757412 5.75365079,24.5323585 C5.78214286,24.4865526 5.86619048,24.3800108 6.02833333,24.3800108 C6.14738095,24.3800108 6.25587302,24.4456712 6.31111111,24.5512749 C6.56619048,25.0392722 7.09015873,25.3381833 7.64722222,25.3100431 C8.40460317,25.2731482 8.99833333,24.6468733 8.99833333,23.8841186 L8.99833333,18.2728922 C8.99833333,17.3550539 9.36134921,16.4909164 10.0201587,15.8411914 C10.1745238,15.6890782 10.344127,15.5511132 10.5239683,15.4301887 C11.4700794,14.7947682 12.035,13.7416226 12.035,12.6137493 C12.035,11.7920566 11.3563492,11.1233369 10.5220635,11.1233369 L8.78722222,11.1233369 C8.52428571,11.1233369 8.31103175,11.3334501 8.31103175,11.5923396 C8.31103175,11.8516199 8.52428571,12.0613423 8.78722222,12.0613423 L9.60134921,12.0613423 L9.60134921,12.6344636 C9.60134921,12.8937439 9.81428571,13.1034663 10.0775397,13.1034663 C10.3403968,13.1034663 10.5537302,12.8937439 10.5537302,12.6344636 L10.5537302,12.0632183 C10.8479365,12.0793989 11.082619,12.3196846 11.082619,12.6137493 C11.082619,13.4314555 10.6730159,14.1947574 9.98730159,14.6555526 C9.75880952,14.8088383 9.54365079,14.9844016 9.3468254,15.1776307 C8.50785714,16.0054205 8.04563492,17.1046846 8.04563492,18.2728922 L8.04563492,20.389814 C8.04563492,21.5064313 7.145,22.4362291 6.03825397,22.4621806 C5.47896825,22.475 4.95222222,22.2704367 4.55230159,21.8856981 C4.15206349,21.5006469 3.93134921,20.9858383 3.93134921,20.4368706 L3.93134921,19.9214367 C3.93134921,19.7409488 4.07365079,19.5858652 4.24261905,19.5831294 C4.3297619,19.581566 4.41,19.6133801 4.47142857,19.6725526 C4.53277778,19.7318032 4.56626984,19.8109084 4.56626984,19.8951725 L4.56626984,20.4099811 C4.56626984,21.1730485 5.16,21.7992453 5.91761905,21.835593 C6.31166667,21.8545094 6.68404762,21.7180296 6.96896825,21.4508544 C7.24984127,21.1876658 7.41071429,20.8179353 7.41071429,20.4368706 L7.41071429,15.0588949 C7.41071429,14.3829057 7.96904762,13.8332345 8.65515873,13.8332345 C8.91833333,13.8332345 9.13134921,13.6231995 9.13134921,13.3642318 C9.13134921,13.1053423 8.91833333,12.8952291 8.65515873,12.8952291 C8.19349206,12.8952291 7.7647619,13.0366334 7.41071429,13.2772318 L7.41071429,11.3056226 C9.04666667,10.7597035 10.7505556,10.4824447 12.4900794,10.4824447 C14.2299206,10.4824447 15.9334921,10.7597035 17.5694444,11.3056226 L17.5694444,13.2772318 C17.2153968,13.0366334 16.7869841,12.8952291 16.325,12.8952291 C16.0621429,12.8952291 15.8488095,13.1053423 15.8488095,13.3642318 C15.8488095,13.6231995 16.0621429,13.8332345 16.325,13.8332345 C17.0114286,13.8332345 17.5694444,14.3829057 17.5694444,15.0588949 L17.5694444,20.4099811 C17.5694444,21.1730485 18.1630952,21.7992453 18.9207937,21.835593 L18.9207937,21.835593 Z M20.579127,16.1812965 C21.3634921,16.1812965 22.0011905,15.5529111 22.0011905,14.7803854 L22.0011905,13.6174151 C22.0011905,13.4449003 22.1438095,13.3047466 22.3186508,13.3047466 C22.4938095,13.3047466 22.6361111,13.4449003 22.6361111,13.6174151 L22.6361111,14.7803854 C22.6361111,15.897628 21.7134921,16.8066334 20.579127,16.8066334 C19.4447619,16.8066334 18.5221429,15.897628 18.5221429,14.7803854 L18.5221429,11.6568275 C18.5419841,11.6647224 18.5624603,11.6723827 18.582619,11.6805903 C18.7714286,11.7581321 18.9635714,11.8149596 19.1570635,11.8531051 L19.1570635,14.7803854 C19.156746,15.5529111 19.7947619,16.1812965 20.579127,16.1812965 L20.579127,16.1812965 Z M18.9480952,10.814655 C16.8911111,9.97193531 14.7181746,9.54443935 12.4900794,9.54443935 C10.2619841,9.54443935 8.08936508,9.97162264 6.03206349,10.814655 C5.14412698,11.1782884 4.14865079,10.8915714 3.59714286,10.1505472 C6.4484127,9.09372776 9.43730159,8.55789218 12.4900794,8.55789218 C15.5431746,8.55789218 18.531746,9.09372776 21.3833333,10.1505472 C20.8315079,10.8915714 19.8360317,11.1782884 18.9480952,10.814655 L18.9480952,10.814655 Z" id="Fill-3" fill="#FAF0F1" mask="url(#mask-2)"></path>
                </g>
                <path d="M14.426746,4.98448248 C14.426746,3.93290027 13.5577778,3.07736119 12.4900794,3.07736119 C11.422381,3.07736119 10.5537302,3.93290027 10.5537302,4.98448248 C10.5537302,6.03637736 11.422381,6.89191644 12.4900794,6.89191644 C13.5577778,6.89191644 14.426746,6.03637736 14.426746,4.98448248 L14.426746,4.98448248 Z M11.5061111,4.98448248 C11.5061111,4.45013208 11.9475397,4.01536658 12.4900794,4.01536658 C13.0329365,4.01536658 13.4743651,4.45013208 13.4743651,4.98448248 C13.4743651,5.51914555 13.0329365,5.95391105 12.4900794,5.95391105 C11.9475397,5.95391105 11.5061111,5.51914555 11.5061111,4.98448248 L11.5061111,4.98448248 Z" id="Fill-5" fill="#FAF0F1"></path>
            </g>
        </g>
    </g>
</svg>