<?xml version="1.0" encoding="UTF-8" standalone="no"?>
<svg width="26px" height="18px" viewBox="0 0 26 18" version="1.1" xmlns="http://www.w3.org/2000/svg" xmlns:xlink="http://www.w3.org/1999/xlink">
    <!-- Generator: Sketch 3.7.2 (28276) - http://www.bohemiancoding.com/sketch -->
    <title>right-arrow</title>
    <desc>Created with Sketch.</desc>
    <defs>
        <polygon id="path-1" points="25.19225 0.286 0.06 0.286 0.06 17.99825 25.19225 17.99825 25.19225 0.286"></polygon>
    </defs>
    <g id="Fase-2" stroke="none" stroke-width="1" fill="none" fill-rule="evenodd">
        <g id="On-boarding-1\" transform="translate(-608.000000, -503.000000)">
            <g id="right-arrow" transform="translate(608.000000, 503.000000)">
                <mask id="mask-2" fill="white">
                    <use xlink:href="#path-1"></use>
                </mask>
                <g id="Clip-2"></g>
                <path d="M16.965,0.552 C16.621,0.197 16.051,0.197 15.695,0.552 C15.352,0.896 15.352,1.466 15.695,1.81 L22.133,8.247 L0.891,8.247 C0.395,8.247 0,8.642 0,9.138 C0,9.63 0.395,10.04 0.891,10.04 L22.133,10.04 L15.695,16.462 C15.352,16.818 15.352,17.392 15.695,17.732 C16.051,18.087 16.621,18.087 16.965,17.732 L24.926,9.771 C25.281,9.427 25.281,8.857 24.926,8.517 L16.965,0.552 Z" id="Fill-1" fill="#F9F0F1" mask="url(#mask-2)"></path>
            </g>
        </g>
    </g>
</svg>