<?xml version="1.0" encoding="UTF-8" standalone="no"?>
<svg width="154px" height="165px" viewBox="0 0 154 165" version="1.1" xmlns="http://www.w3.org/2000/svg" xmlns:xlink="http://www.w3.org/1999/xlink">
    <!-- Generator: Sketch 3.7.2 (28276) - http://www.bohemiancoding.com/sketch -->
    <title>ship</title>
    <desc>Created with Sketch.</desc>
    <defs></defs>
    <g id="Fase-2" stroke="none" stroke-width="1" fill="none" fill-rule="evenodd">
        <g id="On-boarding-2" transform="translate(-435.000000, -112.000000)" fill="#DA465D">
            <g id="ship" transform="translate(435.000000, 112.000000)">
                <path d="M58.3549049,122.953019 C53.9949741,122.953019 50.4480922,126.507857 50.4480922,130.875243 C50.4480922,135.244407 53.9949741,138.798801 58.3549049,138.798801 C62.7135043,138.798801 66.2603862,135.244407 66.2603862,130.875243 C66.2603862,126.507857 62.7135043,122.953019 58.3549049,122.953019 L58.3549049,122.953019 Z M58.3549049,133.461873 C56.9316254,133.461873 55.7737406,132.301536 55.7737406,130.875243 C55.7737406,129.448949 56.9316254,128.288167 58.3549049,128.288167 C59.7781844,128.288167 60.9347378,129.448949 60.9347378,130.875243 C60.9347378,132.301536 59.7781844,133.461873 58.3549049,133.461873 L58.3549049,133.461873 Z" id="Fill-1"></path>
                <path d="M76.7070893,122.953019 C72.3471585,122.953019 68.7998329,126.507857 68.7998329,130.875243 C68.7998329,135.244407 72.3471585,138.798801 76.7070893,138.798801 C81.0670202,138.798801 84.613902,135.244407 84.613902,130.875243 C84.613902,126.507857 81.0670202,122.953019 76.7070893,122.953019 L76.7070893,122.953019 Z M76.7070893,133.461873 C75.2838098,133.461873 74.1254813,132.301536 74.1254813,130.875243 C74.1254813,129.448949 75.2838098,128.288167 76.7070893,128.288167 C78.1303689,128.288167 79.2882536,129.448949 79.2882536,130.875243 C79.2882536,132.301536 78.1303689,133.461873 76.7070893,133.461873 L76.7070893,133.461873 Z" id="Fill-2"></path>
                <g id="Group-6">
                    <path d="M95.05883,122.953019 C90.6988991,122.953019 87.1520173,126.507857 87.1520173,130.875243 C87.1520173,135.244407 90.6988991,138.798801 95.05883,138.798801 C99.4192046,138.798801 102.966086,135.244407 102.966086,130.875243 C102.966086,126.507857 99.4192046,122.953019 95.05883,122.953019 L95.05883,122.953019 Z M95.05883,133.461873 C93.6355504,133.461873 92.4776657,132.301536 92.4776657,130.875243 C92.4776657,129.448949 93.6355504,128.288167 95.05883,128.288167 C96.4821095,128.288167 97.640438,129.448949 97.640438,130.875243 C97.640438,132.301536 96.4821095,133.461873 95.05883,133.461873 L95.05883,133.461873 Z" id="Fill-3"></path>
                    <path d="M153.705314,100.118531 C153.372461,98.6815633 151.940305,97.7885175 150.508594,98.1220755 L105.684386,108.56155 C104.477683,108.843073 103.624692,109.920243 103.624692,111.162412 C103.624692,113.326981 101.866784,115.086833 99.7067896,115.086833 L79.3699135,115.086833 L79.3699135,74.1357008 C81.6927839,76.6582884 84.9276715,78.0894744 88.3933372,78.0894744 C92.1967378,78.0894744 95.724536,76.3696496 98.0718156,73.371186 L100.08136,70.8036792 L102.094012,73.372965 C104.441291,76.3714286 107.969089,78.0912534 111.772934,78.0912534 C115.576334,78.0912534 119.104133,76.3714286 121.451412,73.372965 L124.759084,69.1478976 L128.462184,69.1478976 C129.933839,69.1478976 131.125009,67.9542049 131.125009,66.479434 C131.125009,65.0059973 129.933839,63.8109704 128.462184,63.8109704 L79.3699135,63.8109704 L79.3699135,50.6527763 C81.6927839,53.1753639 84.9276715,54.6069946 88.3933372,54.6069946 C92.1967378,54.6069946 95.724536,52.8867251 98.0718156,49.8864825 L101.378156,45.664973 L105.524617,45.664973 C106.996715,45.664973 108.187441,44.4699461 108.187441,42.9965094 C108.187441,41.5235175 106.996715,40.3280458 105.524617,40.3280458 L79.3699135,40.3280458 L79.3699135,29.6595283 L85.0403977,29.6595283 C86.3442939,29.6595283 87.4555793,28.7144474 87.66683,27.4251348 L89.5112795,16.2287062 C89.6382075,15.4552965 89.4194121,14.6649865 88.9134755,14.0672507 C88.4070951,13.4695148 87.6650548,13.1257278 86.8835159,13.1257278 L79.3699135,13.1257278 L79.3699135,2.8272372 C79.3699135,1.35380054 78.1769683,0.158773585 76.7070893,0.158773585 C75.2349914,0.158773585 74.0442651,1.35380054 74.0442651,2.8272372 L74.0442651,13.1257278 L66.5288876,13.1257278 C65.7473487,13.1257278 65.0053084,13.4695148 64.498928,14.0672507 C63.9925476,14.6632075 63.774196,15.4535175 63.9024553,16.2269272 L65.7455735,27.4251348 C65.9585994,28.7144474 67.0698847,29.6595283 68.3733372,29.6595283 L74.0424899,29.6595283 L74.0424899,40.3280458 L47.8873429,40.3280458 C46.417464,40.3280458 45.2245187,41.5235175 45.2245187,42.9965094 C45.2245187,44.4699461 46.417464,45.664973 47.8873429,45.664973 L52.0289222,45.664973 L55.333487,49.8864825 C57.6807666,52.8849461 61.2085648,54.6052156 65.0137406,54.6052156 C68.4829568,54.6052156 71.7196196,53.1718059 74.0424899,50.6438814 L74.0424899,63.8109704 L24.9519942,63.8109704 C23.4798963,63.8109704 22.28917,65.0059973 22.28917,66.479434 C22.28917,67.9542049 23.4798963,69.1478976 24.9519942,69.1478976 L28.6546513,69.1478976 L31.9574409,73.367628 C34.3047205,76.3678706 37.8325187,78.0876954 41.6376945,78.0876954 C45.4415389,78.0876954 48.9693372,76.3678706 51.3183919,73.367628 L53.3257176,70.8036792 L55.333487,73.369407 C57.6825418,76.3678706 61.2103401,78.0894744 65.0137406,78.0894744 C68.4829568,78.0894744 71.7196196,76.6547305 74.0442651,74.1268059 L74.0442651,115.086833 L64.9152161,115.086833 C62.2523919,115.086833 60.0852968,112.915148 60.0852968,110.246685 L60.0852968,93.0337601 C60.0852968,91.5603235 58.8923516,90.3652965 57.4224726,90.3652965 L2.66282421,90.3652965 C1.19294524,90.3652965 0,91.5603235 0,93.0337601 C0,94.506752 1.19294524,95.7022237 2.66282421,95.7022237 L6.36770029,95.7022237 L6.36770029,101.299771 L2.66282421,101.299771 C1.19294524,101.299771 0,102.494798 0,103.968235 C0,105.443005 1.19294524,106.636698 2.66282421,106.636698 L6.36770029,106.636698 L6.36770029,117.755296 C6.36770029,119.230067 7.56020173,120.42376 9.0305245,120.42376 L18.5288184,120.42376 C18.8736542,125.107358 19.7372968,129.926604 21.378928,134.580849 L18.5199424,134.580849 C17.0482882,134.580849 15.8571182,135.775876 15.8571182,137.249313 L15.8571182,156.265674 C15.8571182,157.738666 17.0482882,158.934137 18.5199424,158.934137 L31.8012219,158.934137 C32.8432738,158.934137 33.7881326,158.324394 34.2212853,157.375755 L35.7572911,154.015714 C44.5778963,160.388005 57.5662651,164.555701 76.4505706,164.555701 C108.513637,164.555701 134.725591,138.934447 135.847527,107.015175 L151.713522,103.320243 C153.147009,102.986685 154.038167,101.553275 153.705314,100.118531 L153.705314,100.118531 Z M69.6683573,18.462655 L83.7453775,18.462655 L82.7796599,24.3226011 L70.6322997,24.3226011 L69.6683573,18.462655 Z M88.3933372,72.7525472 C86.2351182,72.7525472 84.2344496,71.7763342 82.9030375,70.0756334 L82.1765303,69.1478976 L94.6083689,69.1478976 L93.8818617,70.0756334 C92.5504496,71.7763342 90.549781,72.7525472 88.3933372,72.7525472 L88.3933372,72.7525472 Z M117.261458,70.0774124 C115.930046,71.7781132 113.929378,72.7543261 111.772934,72.7543261 C109.616046,72.7543261 107.613602,71.7781132 106.28219,70.0774124 L105.556127,69.1478976 L117.989297,69.1478976 L117.261458,70.0774124 Z M93.8818617,46.5927089 C92.5504496,48.2934097 90.549781,49.2682884 88.3933372,49.2682884 C86.2351182,49.2682884 84.2344496,48.2934097 82.9030375,46.5927089 L82.1765303,45.664973 L94.6083689,45.664973 L93.8818617,46.5927089 Z M65.0137406,49.2682884 C62.8572968,49.2682884 60.8566282,48.2934097 59.5234409,46.5927089 L58.7987089,45.664973 L71.2287723,45.664973 L70.5040403,46.5927089 C69.1726282,48.2934097 67.1706282,49.2682884 65.0137406,49.2682884 L65.0137406,49.2682884 Z M41.6376945,72.7507682 C39.4794755,72.7507682 37.4788069,71.7745553 36.1473948,70.0738544 L35.4226628,69.1478976 L47.8527262,69.1478976 L47.1279942,70.0738544 C45.7965821,71.7745553 43.7945821,72.7507682 41.6376945,72.7507682 L41.6376945,72.7507682 Z M65.0137406,72.7525472 C62.8572968,72.7525472 60.8566282,71.7763342 59.5234409,70.0756334 L58.7987089,69.1478976 L71.2287723,69.1478976 L70.5040403,70.0756334 C69.1726282,71.7763342 67.1706282,72.7525472 65.0137406,72.7525472 L65.0137406,72.7525472 Z M11.6933487,101.299771 L54.7596484,101.299771 L54.7596484,95.7022237 L11.6933487,95.7022237 L11.6933487,101.299771 Z M30.0921326,153.59721 L21.1827666,153.59721 L21.1827666,139.917776 L23.6636311,139.917776 C25.5950663,143.701658 28.1606974,147.281846 31.5136369,150.484003 L30.0921326,153.59721 Z M76.4505706,159.218774 C43.586438,159.218774 25.9123862,146.168652 23.87,120.42376 L49.3558905,120.42376 C50.8275447,120.42376 52.0187147,119.230067 52.0187147,117.755296 C52.0187147,116.28186 50.8275447,115.086833 49.3558905,115.086833 L11.6933487,115.086833 L11.6933487,106.636698 L54.7596484,106.636698 L54.7596484,110.246685 C54.7596484,115.858019 59.3152968,120.42376 64.9152161,120.42376 L99.7067896,120.42376 C104.054738,120.42376 107.710795,117.400836 108.692046,113.340768 L130.459303,108.271577 C128.715153,136.660472 105.157147,159.218774 76.4505706,159.218774 L76.4505706,159.218774 Z" id="Fill-5"></path>
                </g>
            </g>
        </g>
    </g>
</svg>