<?xml version="1.0" encoding="UTF-8" standalone="no"?>
<svg width="124px" height="105px" viewBox="0 0 124 105" version="1.1" xmlns="http://www.w3.org/2000/svg" xmlns:xlink="http://www.w3.org/1999/xlink">
    <!-- Generator: Sketch 3.7.2 (28276) - http://www.bohemiancoding.com/sketch -->
    <title>volume</title>
    <desc>Created with Sketch.</desc>
    <defs>
        <polygon id="path-1" points="0.1171875 0.438339625 0.1171875 104.996111 123.664063 104.996111 123.664063 0.438339625 0.1171875 0.438339625"></polygon>
    </defs>
    <g id="Fase-2" stroke="none" stroke-width="1" fill="none" fill-rule="evenodd">
        <g id="On-boarding-3" transform="translate(-451.000000, -145.000000)">
            <g id="volume" transform="translate(451.000000, 145.000000)">
                <path d="M71.5332031,69.8911111 C70.1835937,70.9683333 69.96875,72.9283333 71.0527344,74.2661111 C71.6699219,75.0322222 72.578125,75.4347222 73.4863281,75.4347222 C74.1738281,75.4347222 74.8671875,75.2072222 75.4472656,74.7444444 C82.1679687,69.3738889 86.0214844,61.3763889 86.0214844,52.8013889 C86.0214844,44.2030556 82.1464844,36.1822222 75.3867187,30.8116667 C74.0351562,29.7325 72.0664062,29.9541667 70.9921875,31.2977778 C69.9160156,32.6433333 70.1367187,34.5936111 71.4804687,35.6727778 C76.7519531,39.8572222 79.765625,46.1008333 79.765625,52.8013889 C79.7734375,59.4766667 76.7675781,65.7047222 71.5332031,69.8911111 L71.5332031,69.8911111 Z" id="Fill-1" fill="#DA465D"></path>
                <path d="M86.7011719,87.9141667 C87.3867187,87.9141667 88.0820312,87.6866667 88.6621094,87.2316667 C99.1972656,78.8005556 105.248047,66.2608333 105.248047,52.8091667 C105.240234,39.3263889 99.1601562,26.7555556 88.5625,18.3244444 C87.21875,17.2530556 85.2441406,17.4669444 84.1679687,18.8105556 C83.0917969,20.1561111 83.3125,22.1141667 84.6640625,23.1855556 C93.765625,30.4325 98.9921875,41.2261111 98.9921875,52.8091667 C98.9921875,64.3611111 93.8027344,75.1391667 84.7480469,82.3783333 C83.3964844,83.4477778 83.1835937,85.4077778 84.2597656,86.7533333 C84.8847656,87.5116667 85.7929687,87.9141667 86.7011719,87.9141667 L86.7011719,87.9141667 Z" id="Fill-2" fill="#DA465D"></path>
                <g id="Group-6">
                    <mask id="mask-2" fill="white">
                        <use xlink:href="#path-1"></use>
                    </mask>
                    <g id="Clip-4"></g>
                    <path d="M99.0449219,100.523889 C99.7304688,100.523889 100.425781,100.296389 100.998047,99.8394444 C115.402344,88.3244444 123.664063,71.19 123.664063,52.8227778 C123.65625,34.405 115.349609,17.2316667 100.875,5.70888889 C99.5253906,4.6375 97.5644531,4.85722222 96.4804688,6.20277778 C95.40625,7.53861111 95.6269531,9.49861111 96.96875,10.57 C109.955078,20.9066667 117.408203,36.3027778 117.408203,52.8227778 C117.408203,69.2902778 110,84.6630556 97.0839844,94.9861111 C95.7421875,96.0652778 95.5273438,98.0252778 96.6035156,99.3611111 C97.2285156,100.129167 98.1289063,100.523889 99.0449219,100.523889 L99.0449219,100.523889 Z" id="Fill-3" fill="#DA465D" mask="url(#mask-2)"></path>
                    <path d="M0,35.6883333 L0,70.0116667 C0,75.8294444 5.08789063,79.9769444 10.3828125,79.9769444 L25.6191406,79.9769444 C28.8242188,81.5344444 43.7460938,93.2088889 56.5644531,104.1075 C57.1445313,104.593611 57.8613281,104.996111 58.59375,104.996111 C59.0371094,104.996111 59.0898438,104.9825 59.5097656,104.791944 C60.6152344,104.2825 60.9355469,103.25 60.9355469,102.034722 L60.9355469,3.6575 C60.9355469,2.43444444 60.6074219,1.32611111 59.4863281,0.824444444 C58.3574219,0.322777778 57.2363281,0.225555556 56.3203125,1.04611111 C43.5410156,12.355 28.8476563,25.5325 25.5957031,25.5325 L10.3828125,25.5325 C4.82226563,25.5325 0,30.1505556 0,35.6883333 L0,35.6883333 Z M6.24804687,35.6883333 C6.24804687,33.6291667 8.31640625,31.7605556 10.3828125,31.7605556 L25.8945312,31.7605556 C27.0546875,31.7605556 29.6855469,32.3536111 54.6875,10.5544444 L54.6875,95.3205556 C29.6855469,74.3497222 27.046875,73.7566667 25.8945312,73.7566667 L10.3828125,73.7566667 C8.37695312,73.7566667 6.24804687,72.1077778 6.24804687,70.0116667 L6.24804687,35.6883333 Z" id="Fill-5" fill="#DA465D" mask="url(#mask-2)"></path>
                </g>
            </g>
        </g>
    </g>
</svg>