<?xml version="1.0" encoding="UTF-8" standalone="no"?>
<svg width="45px" height="21px" viewBox="0 0 45 21" version="1.1" xmlns="http://www.w3.org/2000/svg" xmlns:xlink="http://www.w3.org/1999/xlink">
    <!-- Generator: Sketch 3.7.2 (28276) - http://www.bohemiancoding.com/sketch -->
    <title>water</title>
    <desc>Created with Sketch.</desc>
    <defs>
        <linearGradient x1="-57.3387667%" y1="-8.38317194%" x2="158.383172%" y2="-7.33876668%" id="linearGradient-1">
            <stop stop-color="#FFFFFF" offset="0%"></stop>
            <stop stop-color="#97283C" offset="100%"></stop>
        </linearGradient>
    </defs>
    <g id="Fase-2" stroke="none" stroke-width="1" fill="none" fill-rule="evenodd">
        <g id="Chapter-1" transform="translate(-160.000000, -264.000000)" fill="url(#linearGradient-1)">
            <g id="water" transform="translate(160.000000, 264.000000)">
                <path d="M30.890799,20.8172711 C28.1210021,20.8172711 25.0380827,20.0088851 21.7429646,17.8420935 C10.5861433,10.5016316 3.01858547,17.4331453 2.70115001,17.7303461 C2.3009053,18.1052153 1.64705726,18.1147257 1.23904918,17.7493669 C0.828453312,17.3840081 0.818102155,16.7864365 1.21230869,16.4083972 C1.30288131,16.3220108 10.3066621,7.97899171 22.945424,16.2942721 C34.0384131,23.5943148 42.178735,13.4245018 42.5229109,12.9878148 C42.8558731,12.5606383 43.5028204,12.4647415 43.9643094,12.7706601 C44.4301115,13.0773713 44.5370734,13.6686026 44.2041112,14.0957792 C44.1333783,14.1892983 38.8258229,20.8141009 30.890799,20.8172711 L30.890799,20.8172711 Z" id="Fill-1"></path>
                <path d="M30.890799,14.8264967 C28.1210021,14.8264967 25.0380827,14.0220734 21.7429646,11.8544893 C10.5421509,4.48311849 3.01858547,11.4399934 2.70115001,11.7403643 C2.30435568,12.1176111 1.65050764,12.1302916 1.23904918,11.7649328 C0.828453312,11.3995741 0.81465177,10.7988323 1.21230869,10.4215855 C1.30288131,10.3344066 10.3066621,1.9913875 22.945424,10.3066679 C34.0349627,17.6035404 42.178735,7.43689756 42.5229109,7.00021061 C42.8558731,6.57303408 43.5028204,6.47713731 43.9643094,6.78067833 C44.4301115,7.08738949 44.5370734,7.68179097 44.2041112,8.1089675 C44.1333783,8.19852399 38.8258229,14.8264967 30.890799,14.8264967 L30.890799,14.8264967 Z" id="Fill-3"></path>
                <path d="M30.890799,8.24211343 C28.1210021,8.24211343 25.0380827,7.43689756 21.7429646,5.2669359 C10.5861433,-2.07352607 3.01858547,4.85798769 2.70115001,5.15518843 C2.3009053,5.53005762 1.64705726,5.53877551 1.23904918,5.17420927 C0.828453312,4.8112281 0.818102155,4.21127888 1.21230869,3.83323954 C1.30288131,3.74685319 10.3066621,-4.59695847 22.945424,3.72149206 C34.0384131,11.0191571 42.178735,0.848551591 42.5229109,0.412657175 C42.8558731,-0.014519353 43.5028204,-0.110416125 43.9643094,0.195502502 C44.4301115,0.502213664 44.5370734,1.09661514 44.2041112,1.52062153 C44.1333783,1.61334816 38.8258229,8.23894329 30.890799,8.24211343 L30.890799,8.24211343 Z" id="Fill-4"></path>
            </g>
        </g>
    </g>
</svg>