<?xml version="1.0" encoding="UTF-8" standalone="no"?>
<svg width="174px" height="170px" viewBox="0 0 174 170" version="1.1" xmlns="http://www.w3.org/2000/svg" xmlns:xlink="http://www.w3.org/1999/xlink">
    <!-- Generator: Sketch 3.7.2 (28276) - http://www.bohemiancoding.com/sketch -->
    <title>helm</title>
    <desc>Created with Sketch.</desc>
    <defs>
        <polygon id="path-1" points="0 0.744760307 0 170.329667 173.352848 170.329667 173.352848 0.744760307 0 0.744760307"></polygon>
    </defs>
    <g id="Fase-2" stroke="none" stroke-width="1" fill="none" fill-rule="evenodd">
        <g id="On-boarding-1\" transform="translate(-419.000000, -113.000000)">
            <g id="helm" transform="translate(419.000000, 112.000000)">
                <path d="M86.856,68.3406667 C81.1983333,68.3406667 76.6003333,72.9533333 76.6003333,78.611 C76.6003333,84.2686667 81.1983333,88.8813333 86.856,88.8813333 C92.5246667,88.8813333 97.1226667,84.2686667 97.1226667,78.611 C97.1226667,72.9533333 92.5246667,68.3406667 86.856,68.3406667 L86.856,68.3406667 Z M86.856,83.0073333 C84.4323333,83.0073333 82.456,81.031 82.456,78.611 C82.456,76.1763333 84.4323333,74.2146667 86.856,74.2146667 C89.2906667,74.2146667 91.267,76.1763333 91.267,78.611 C91.267,81.031 89.2906667,83.0073333 86.856,83.0073333 L86.856,83.0073333 Z" id="Fill-1" fill="#DA465D"></path>
                <g id="Group-5" transform="translate(0.000000, 0.666667)">
                    <mask id="mask-2" fill="white">
                        <use xlink:href="#path-1"></use>
                    </mask>
                    <g id="Clip-3"></g>
                    <path d="M125.356,95.9073333 C125.913333,94.7303333 126.401,93.5276667 126.844667,92.2956667 C126.943667,92.0243333 127.057333,91.753 127.16,91.467 C127.545,90.279 127.889667,89.0726667 128.175667,87.8553333 C128.249,87.5693333 128.333333,87.298 128.392,87.012 C129.033667,84.0896667 129.393,81.0536667 129.393,77.9443333 C129.393,67.476 125.568667,57.895 119.280333,50.4736667 L119.265667,50.459 C119.24,50.415 119.196,50.3893333 119.166667,50.3453333 C118.206,49.2416667 117.205,48.182 116.145333,47.1663333 C115.987667,47.0233333 115.83,46.895 115.672333,46.7483333 C114.682333,45.8316667 113.652,44.959 112.577667,44.145 C112.405333,44.013 112.233,43.8846667 112.060667,43.7563333 C110.960667,42.9533333 109.827667,42.1943333 108.654333,41.494 C108.496667,41.395 108.353667,41.2923333 108.196,41.208 C106.905333,40.4636667 105.603667,39.7743333 104.243333,39.173 C104.214,39.1583333 104.184667,39.129 104.140667,39.1143333 C104.140667,39.1143333 104.140667,39.1143333 104.126,39.1143333 C98.8423333,36.753 93.0123333,35.4073333 86.856,35.4073333 C80.5823333,35.4073333 74.6496667,36.8116667 69.2926667,39.2573333 L69.267,39.2573333 C69.223,39.2866667 69.1936667,39.3013333 69.1496667,39.3306667 C67.804,39.9466667 66.5023333,40.6323333 65.241,41.3803333 C65.098,41.4646667 64.955,41.549 64.7973333,41.6516667 C63.635,42.352 62.5056667,43.1256667 61.4313333,43.9433333 C61.2296667,44.0716667 61.0426667,44.2146667 60.8593333,44.3576667 C59.84,45.1606667 58.8683333,45.9893333 57.9223333,46.8656667 C57.706,47.049 57.4933333,47.236 57.2916667,47.423 C56.3016667,48.3983333 55.3593333,49.3993333 54.4573333,50.459 C54.384,50.547 54.2996667,50.6313333 54.2116667,50.7156667 C54.2116667,50.7156667 54.2116667,50.7303333 54.197,50.745 C48.0406667,58.1223333 44.33,67.6043333 44.33,77.9443333 C44.33,79.4366667 44.3996667,80.9106667 44.5573333,82.3553333 L44.5573333,82.37 C44.5573333,82.458 44.5866667,82.5423333 44.6013333,82.6303333 C44.759,84.0603333 44.99,85.4793333 45.276,86.8543333 C45.3603333,87.2136667 45.4593333,87.54 45.5473333,87.8846667 C45.8333333,89.0616667 46.134,90.2056667 46.5226667,91.324 C46.6216667,91.6246667 46.7353333,91.9253333 46.8343333,92.226 C47.2816667,93.4433333 47.7656667,94.6313333 48.2973333,95.79 C48.3816667,95.9623333 48.4696667,96.1346667 48.554,96.307 C49.1846667,97.638 49.8996667,98.9286667 50.6733333,100.19 C50.688,100.215667 50.7026667,100.230333 50.7173333,100.259667 C50.7173333,100.274333 50.732,100.274333 50.732,100.289 C58.2376667,112.392667 71.599,120.485 86.856,120.485 C86.9256667,120.485 86.9843333,120.470333 87.0393333,120.470333 C87.1126667,120.470333 87.1676667,120.485 87.2263333,120.485 C88.5316667,120.485 89.848,120.397 91.179,120.268667 C91.1936667,120.254 91.2083333,120.254 91.223,120.254 C93.401,120.041333 95.59,119.667333 97.7826667,119.11 C97.9843333,119.051333 98.142,118.952333 98.3253333,118.864333 C108.639667,115.971333 117.362667,109.298 122.906667,100.417333 C122.917667,100.402667 122.917667,100.402667 122.917667,100.388 C122.932333,100.362333 122.947,100.347667 122.961667,100.318333 C123.75,99.057 124.465,97.77 125.110333,96.4206667 C125.198333,96.2483333 125.282667,96.0796667 125.356,95.9073333 L125.356,95.9073333 Z M123.522667,77.9883333 L111.331,73.2033333 C110.975333,71.37 110.414333,69.5953333 109.67,67.9196667 L117.146333,57.3046667 C121.157667,63.1933333 123.522667,70.2956667 123.522667,77.9443333 L123.522667,77.9883333 L123.522667,77.9883333 Z M122.892,84.6213333 C122.789333,85.164 122.661,85.7066667 122.547333,86.2383333 C122.433667,86.7406667 122.301667,87.2393333 122.158667,87.727 C121.99,88.3283333 121.817667,88.9443333 121.616,89.531 C121.517,89.8316667 121.399667,90.1213333 121.300667,90.4073333 C120.699333,92.039 120.01,93.6303333 119.166667,95.1886667 L108.166667,90.8656667 C108.225333,90.763 108.280333,90.6493333 108.339,90.5356667 C108.709333,89.905 109.054,89.2596667 109.369333,88.6033333 C109.442667,88.431 109.541667,88.2586667 109.615,88.0863333 C110.374,86.3813333 110.960667,84.5773333 111.316333,82.7146667 C111.360333,82.5423333 111.375,82.37 111.404333,82.1976667 C111.532667,81.4826667 111.631667,80.753 111.690333,80.0086667 C111.705,79.895 111.719667,79.7776667 111.734333,79.664 L122.976333,84.075 C122.932333,84.2473333 122.917667,84.4343333 122.892,84.6213333 L122.892,84.6213333 Z M103.356,87.4556667 C103.312,87.54 103.268,87.6133333 103.209333,87.6866667 C102.681333,88.5886667 102.065333,89.4613333 101.376,90.279 C97.999,94.2316667 93.0563333,96.7946667 87.4976667,96.9816667 C85.1363333,97.0073333 82.7566667,96.6223333 80.465,95.7496667 C80.1936667,95.647 79.9223333,95.6066667 79.6363333,95.5773333 C76.758,94.3893333 74.206,92.5266667 72.2443333,90.1616667 C71.5843333,89.3733333 71.0123333,88.5446667 70.4843333,87.672 C70.4256667,87.5693333 70.356,87.4703333 70.2973333,87.3566667 C69.8096667,86.495 69.3806667,85.5783333 69.036,84.647 C68.9773333,84.5333333 68.937,84.4196667 68.893,84.2913333 C68.563,83.3453333 68.3063333,82.3846667 68.1193333,81.3983333 C68.09,81.281 68.09,81.1526667 68.0606667,81.0243333 C67.892,80.0086667 67.7893333,78.9783333 67.7893333,77.9443333 C67.7893333,77.1303333 67.8626667,76.3273333 67.9616667,75.539 C68.2476667,73.2913333 68.9223333,71.1573333 69.9233333,69.2066667 C70.1983333,68.6786667 70.499,68.1616667 70.8253333,67.663 C70.84,67.619 70.8693333,67.575 70.8986667,67.531 C73.4066667,63.6956667 77.2566667,60.843 81.7116667,59.5963333 C83.3433333,59.138 85.0776667,58.8813333 86.856,58.8813333 C88.5426667,58.8813333 90.178,59.1123333 91.7253333,59.5266667 C92.356,59.699 92.9683333,59.897 93.5733333,60.1133333 C93.5843333,60.128 93.599,60.128 93.6136667,60.1426667 C94.2003333,60.3553333 94.7906667,60.6156667 95.348,60.887 C95.3773333,60.9163333 95.4066667,60.9163333 95.4323333,60.931 C95.9786667,61.2023333 96.492,61.503 97.009,61.833 C97.053,61.8623333 97.0933333,61.8733333 97.1373333,61.9173333 C97.625,62.218 98.098,62.5626667 98.5563333,62.922 C98.615,62.9623333 98.67,63.0063333 98.7286667,63.0503333 C99.1723333,63.395 99.5866667,63.7653333 99.99,64.154 C100.045,64.209 100.133,64.2823333 100.188,64.3373333 C100.606,64.7406667 100.976333,65.155 101.350333,65.584 C101.405333,65.6426667 101.464,65.6976667 101.508,65.7563333 C102.336667,66.7463333 103.051667,67.8206667 103.667667,68.95 C104.756667,70.9996667 105.49,73.262 105.776,75.638 L105.776,75.6673333 C105.860333,76.4116667 105.919,77.1706667 105.919,77.9296667 C105.919,78.9893333 105.816333,80.038 105.644,81.0683333 C105.633,81.182 105.618333,81.2956667 105.589,81.413 C105.402,82.414 105.130667,83.404 104.786,84.361 C104.742,84.4636667 104.716333,84.5626667 104.672333,84.6616667 C104.313,85.637 103.869333,86.5683333 103.356,87.4556667 L103.356,87.4556667 Z M94.1013333,101.906 L94.116,113.881333 C91.938,114.325 89.6756667,114.556 87.384,114.581667 C86.9256667,114.581667 86.4673333,114.581667 86.0236667,114.570667 C85.5653333,114.556 85.107,114.526667 84.6486667,114.497333 C83.9043333,114.438667 83.1453333,114.383667 82.3863333,114.281 L82.3716667,102.452333 C83.3323333,102.624667 84.304,102.738333 85.294,102.797 L85.4076667,102.797 C85.8953333,102.822667 86.3683333,102.866667 86.856,102.866667 C87.098,102.866667 87.3253333,102.837333 87.5563333,102.837333 C88.1283333,102.822667 88.6893333,102.797 89.2613333,102.753 C89.3603333,102.738333 89.4593333,102.738333 89.562,102.723667 C91.0946667,102.580667 92.6273333,102.338667 94.1013333,101.906 L94.1013333,101.906 Z M65.4683333,90.7483333 L54.483,95.0603333 C53.669,93.5276667 52.9943333,91.9656667 52.4076667,90.378 C52.294,90.048 52.1656667,89.7326667 52.063,89.4173333 C51.876,88.8746667 51.733,88.3283333 51.5753333,87.771 C51.4176667,87.2136667 51.26,86.638 51.1316667,86.066 C51.0326667,85.6076667 50.9336667,85.1346667 50.8456667,84.6616667 C50.7906667,84.4196667 50.776,84.174 50.732,83.932 L61.974,79.521 C61.9886667,79.6493333 62.018,79.7776667 62.0326667,79.906 C62.0913333,80.5953333 62.1756667,81.281 62.2746667,81.9556667 C62.3186667,82.1866667 62.348,82.3993333 62.392,82.6303333 C62.733,84.4893333 63.3086667,86.2676667 64.053,87.958 C64.1373333,88.156 64.24,88.3576667 64.339,88.5593333 C64.625,89.1753333 64.9403333,89.7766667 65.2703333,90.3633333 C65.34,90.4916667 65.3986667,90.6346667 65.4683333,90.7483333 L65.4683333,90.7483333 Z M56.3896667,57.5796667 L63.8953333,68.235 C63.25,69.7676667 62.7476667,71.3846667 62.4176667,73.0456667 L50.2003333,77.8453333 C50.215,70.3396667 52.492,63.3803333 56.3896667,57.5796667 L56.3896667,57.5796667 Z M60.4853333,52.538 C60.929,52.0796667 61.3873333,51.6323333 61.8456667,51.2033333 C62.117,50.9466667 62.392,50.7046667 62.678,50.4443333 C63.25,49.9566667 63.822,49.4726667 64.4233333,49.0143333 C64.5663333,48.897 64.7093333,48.7833333 64.867,48.6696667 C66.3446667,47.566 67.9066667,46.5503333 69.5383333,45.674 L76.34,55.3576667 C76.2703333,55.387 76.2116667,55.431 76.142,55.4713333 C75.394,55.816 74.6643333,56.2156667 73.964,56.6483333 C73.8356667,56.718 73.7073333,56.7913333 73.5753333,56.8756667 C72.831,57.3486667 72.116,57.851 71.4266667,58.3936667 C71.3863333,58.4376667 71.3276667,58.467 71.2836667,58.4963333 C69.8096667,59.6843333 68.4786667,61.0446667 67.3016667,62.5333333 C67.2613333,62.5773333 67.2026667,62.6323333 67.1586667,62.691 L60.214,52.824 C60.313,52.736 60.401,52.6223333 60.4853333,52.538 L60.4853333,52.538 Z M97.0823333,55.2293333 L103.913333,45.52 C104.742,45.9636667 105.545,46.4366667 106.348,46.9353333 C106.392,46.9646667 106.447,46.994 106.491,47.0233333 C107.235333,47.4963333 107.965,48.0096667 108.669,48.5413333 C108.797333,48.6256667 108.925667,48.7283333 109.039333,48.8126667 C109.714,49.3296667 110.374,49.8576667 111.015667,50.4296667 C111.158667,50.547 111.290667,50.69 111.433667,50.8183333 C112.049667,51.361 112.665667,51.9366667 113.237667,52.538 C113.252333,52.549 113.267,52.5636667 113.281667,52.593 L106.362667,62.4196667 C106.318667,62.3756667 106.274667,62.3463333 106.249,62.306 C105.658667,61.5726667 105.042667,60.887 104.386333,60.227 C104.371667,60.2123333 104.342333,60.1976667 104.327667,60.1866667 C103.682333,59.5413333 102.996667,58.9546667 102.281667,58.3936667 C102.149667,58.28 102.006667,58.181 101.878333,58.0783333 C101.247667,57.6053333 100.591333,57.1616667 99.9166667,56.7326667 L99.517,56.4906667 C98.758,56.047 97.9696667,55.629 97.152,55.2586667 C97.1373333,55.2586667 97.108,55.2293333 97.0823333,55.2293333 L97.0823333,55.2293333 Z M98.3986667,43.1696667 L91.1936667,53.4106667 C89.7746667,53.165 88.3446667,53.0073333 86.856,53.0073333 C85.2646667,53.0073333 83.7026667,53.165 82.1846667,53.4656667 L75.0236667,43.2686667 C78.7343333,41.9963333 82.7163333,41.2776667 86.856,41.2776667 C90.893,41.2776667 94.776,41.9523333 98.3986667,43.1696667 L98.3986667,43.1696667 Z M57.706,100.087333 L69.2523333,95.5773333 C71.3276667,97.6526667 73.7916667,99.343 76.4976667,100.589667 L76.5123333,113.107667 C68.937,110.86 62.392,106.232667 57.706,100.087333 L57.706,100.087333 Z M99.99,112.132333 L99.9606667,99.1156667 C101.548333,98.1256667 103.040667,96.9816667 104.357,95.6763333 L115.914333,100.204667 C111.833333,105.532333 106.348,109.686667 99.99,112.132333 L99.99,112.132333 Z" id="Fill-2" fill="#DA465D" mask="url(#mask-2)"></path>
                    <path d="M172.362667,100.820667 C171.116,97.9533333 168.809667,95.735 165.902,94.5873333 L151.895333,89.102 C152.511333,85.4793333 152.856,81.7393333 152.856,77.9443333 C152.856,60.3296667 145.907667,44.3136667 134.621667,32.4703333 L143.946,19.2226667 C145.75,16.656 146.450333,13.5503333 145.922333,10.4703333 C145.376,7.37566667 143.674667,4.68433333 141.108,2.88033333 C135.824333,-0.845 128.491,0.431 124.765667,5.71466667 L115.701667,18.592 C106.978667,14.3386667 97.196,11.9443333 86.856,11.9443333 C76.4133333,11.9443333 66.5316667,14.3936667 57.7353333,18.735 L48.5833333,5.71466667 C44.858,0.431 37.51,-0.845 32.2263333,2.88033333 C26.9426667,6.602 25.6666667,13.9353333 29.392,19.2373333 L38.874,32.6976667 C27.7163333,44.5153333 20.856,60.4433333 20.856,77.9443333 C20.856,81.699 21.1823333,85.3803333 21.7983333,88.9736667 L7.447,94.5873333 C1.43366667,96.9523333 -1.54733333,103.768667 0.803,109.800333 C2.62166667,114.424 7.062,117.247333 11.7443333,117.247333 C13.1633333,117.247333 14.608,116.990667 16.0123333,116.444333 L29.7916667,111.047 C39.589,127.862333 56.606,139.991667 76.5563333,143.130333 L76.5856667,158.611 C76.6003333,165.086333 81.8546667,170.329667 88.3153333,170.329667 L88.33,170.329667 C94.8016667,170.329667 100.059667,165.042333 100.045,158.581667 L100.030333,142.613333 C118.708333,138.818333 134.522667,127.114333 143.858,111.160667 L157.336667,116.444333 C158.741,116.990667 160.174667,117.247333 161.604667,117.247333 C166.290667,117.247333 170.727333,114.413 172.535,109.800333 C173.679,106.878 173.624,103.699 172.362667,100.820667 L172.362667,100.820667 Z M129.565333,9.09533333 C131.428,6.44433333 135.094667,5.81366667 137.727333,7.67633333 C140.378333,9.539 141.009,13.2056667 139.146333,15.8566667 L130.339,28.36 C127.402,25.7823333 124.252333,23.4466667 120.886333,21.4116667 L129.565333,9.09533333 Z M35.607,7.67633333 C36.6373333,6.94666667 37.8106667,6.602 38.973,6.602 C40.821,6.602 42.6396667,7.47833333 43.7836667,9.09533333 L52.5653333,21.5693333 C52.5506667,21.584 52.536,21.5986667 52.5213333,21.6133333 C49.1846667,23.6483333 46.0496667,25.9803333 43.142,28.5616667 L34.188,15.8566667 C32.3253333,13.2056667 32.9706667,9.539 35.607,7.67633333 L35.607,7.67633333 Z M13.8636667,110.973667 C10.8716667,112.147 7.447,110.673 6.27366667,107.651667 C5.08566667,104.645 6.57433333,101.235 9.59566667,100.047 L23.045,94.7743333 C24.0496667,98.5986667 25.41,102.294667 27.0563333,105.803667 L13.8636667,110.973667 Z M94.1746667,158.581667 C94.1893333,161.819333 91.553,164.455667 88.33,164.470333 L88.3153333,164.470333 C85.0776667,164.470333 82.456,161.834 82.4413333,158.611 L82.4266667,143.772 C83.1893333,143.830667 83.9593333,143.86 84.733,143.889333 C85.1913333,143.904 85.6643333,143.915 86.1226667,143.929667 C86.3683333,143.929667 86.6103333,143.944333 86.856,143.944333 C87.0833333,143.944333 87.3106667,143.929667 87.5416667,143.929667 C88.044,143.915 88.5573333,143.904 89.0596667,143.889333 C90.7793333,143.830667 92.4843333,143.717 94.16,143.53 L94.1746667,158.581667 Z M96.635,137.212333 C96.624,137.212333 96.624,137.197667 96.6093333,137.212333 C94.9336667,137.487333 93.357,137.685333 91.8096667,137.828333 C90.178,137.956667 88.5316667,138.074 86.856,138.074 C85.25,138.074 83.6733333,137.956667 82.1003333,137.828333 C81.356,137.773333 80.6226667,137.714667 79.8343333,137.630333 L79.8233333,137.630333 C59.8106667,135.28 42.7826667,123.077333 33.715,106.005333 L33.715,105.990667 C33.616,105.789 33.5316667,105.587333 33.429,105.389333 C32.857,104.271 32.2996667,103.152667 31.7973333,102.008667 C31.482,101.29 31.2106667,100.560333 30.9246667,99.8453333 C30.5506667,98.8846667 30.1913333,97.924 29.865,96.9523333 C29.6486667,96.3216667 29.4323333,95.6763333 29.2343333,95.031 C27.6283333,89.6043333 26.7263333,83.8733333 26.7263333,77.9443333 C26.7263333,61.173 33.6453333,46.004 44.7443333,35.092 C44.759,35.0773333 44.7883333,35.0626667 44.803,35.048 C45.8773333,33.9883333 46.9773333,32.9873333 48.125,32.0266667 C48.6566667,31.5683333 49.214,31.1393333 49.7713333,30.7066667 C50.633,30.0356667 51.491,29.3756667 52.393,28.745 C52.8806667,28.404 53.383,28.0593333 53.8816667,27.7146667 C63.3636667,21.4703333 74.6936667,17.8036667 86.867,17.8036667 C97.1226667,17.8036667 106.777,20.396 115.243333,24.95 C115.742,25.2213333 116.200333,25.522 116.688,25.797 C117.648667,26.3543333 118.609333,26.9263333 119.540667,27.5276667 C120.211667,27.9713333 120.886333,28.4296667 121.542667,28.9026667 C122.217333,29.3756667 122.862667,29.878 123.508,30.3803333 C125.341333,31.781 127.101333,33.2733333 128.777,34.905 L128.791667,34.905 C140.008,45.8316667 146.996667,61.074 146.996667,77.9443333 C146.996667,82.1976667 146.553,86.3373333 145.706,90.334 L145.706,90.3486667 C145.365,91.9253333 144.961667,93.4726667 144.503333,94.9906667 C144.290667,95.7056667 144.059667,96.406 143.817667,97.11 C143.502333,98.0266667 143.172333,98.9433333 142.813,99.86 C142.527,100.589667 142.241,101.319333 141.925667,102.038 C141.368333,103.325 140.752333,104.571667 140.107,105.803667 C140.048333,105.902667 140.008,106.02 139.949333,106.104333 L139.949333,106.119 C131.299667,122.362333 115.415667,134.121333 96.635,137.212333 L96.635,137.212333 Z M167.075333,107.651667 C165.902,110.673 162.477333,112.147 159.470667,110.973667 L146.608,105.932 C148.272667,102.423 149.618333,98.7416667 150.634,94.9173333 L163.753333,100.061667 C165.216333,100.619 166.360333,101.737333 166.991,103.167333 C167.621667,104.601 167.651,106.203333 167.075333,107.651667 L167.075333,107.651667 Z" id="Fill-4" fill="#DA465D" mask="url(#mask-2)"></path>
                </g>
            </g>
        </g>
    </g>
</svg>